<svg height="50px" width="50px" version="1.1" id="Layer_1" xmlns="http://www.w3.org/2000/svg" xmlns:xlink="http://www.w3.org/1999/xlink" viewBox="-51.2 -51.2 614.40 614.40" xml:space="preserve" fill="#000000"><g id="SVGRepo_bgCarrier" stroke-width="0"><path transform="translate(-51.2, -51.2), scale(19.2)" d="M16,31.980245295254623C19.193996943885214,31.652892227377,21.34485338847074,28.793974702975316,23.75013954986677,26.667151957565224C25.899311430660696,24.76679277651238,28.08880729765027,22.932258880482568,29.21611726858349,20.294176808286615C30.42491979576899,17.46538937801723,31.11395945727776,14.320594798113348,30.292955305322252,11.355937303924188C29.451759842297747,8.318368702604044,27.359789765552264,5.718092038792143,24.70783238537241,4.014696938280046C22.14911255844494,2.371189825629611,19.033889920628415,1.9663560283901609,16,2.175341031568891C13.128629626720599,2.373131116999152,10.19483057797551,3.1601261404159287,8.122224283291212,5.1571719299951795C6.18082343437904,7.027795598923191,6.250983358934289,10.00242028810488,5.270425595504463,12.513749943782942C4.203060508458227,15.247403886982214,1.8103633589689565,17.58970603161031,2.128820740019581,20.507019351545026C2.472274555245566,23.65331913783223,4.563955488150692,26.366358183293354,7.002796030423529,28.383588878516523C9.554025137504102,30.493779182534354,12.70641135443922,32.31780552664913,16,31.980245295254623" fill="#9c2227" strokewidth="0"></path></g><g id="SVGRepo_tracerCarrier" stroke-linecap="round" stroke-linejoin="round"></g>

<g id="SVGRepo_iconCarrier"> <path style="fill:#547475;" d="M503.916,183.063v-18.12c0-14.307-11.6-25.906-25.907-25.906h-52.707 c-23.466-27.916-58.637-45.665-97.96-45.665c-39.322,0-74.494,17.749-97.96,45.665H33.991c-14.308,0-25.907,11.599-25.907,25.906 v227.78c0,14.308,11.599,25.907,25.907,25.907H478.01c14.307,0,25.907-11.599,25.907-25.907V207.854"></path> <circle style="fill:#8AACAD;" cx="327.022" cy="230.27" r="99.597"></circle> <path style="fill:#384949;" d="M261.093,257.141c-3.244-8.129-5.027-16.999-5.027-26.286c0-39.19,31.769-70.96,70.96-70.96 s70.958,31.77,70.958,70.96s-31.767,70.96-70.958,70.96c-21.002,0-39.871-9.122-52.863-23.621"></path> <circle style="fill:#53CAF9;" cx="327.022" cy="231.758" r="25.05"></circle> <path style="fill:#8AACAD;" d="M118.723,106.001h-61.44c-7.143,0-12.935,5.792-12.935,12.935v20.101h87.309v-20.101 C131.657,111.792,125.866,106.001,118.723,106.001z"></path> <g style="opacity:0.2;"> <path style="fill:#231F20;" d="M281.383,230.855c0-34.868,25.154-63.838,58.301-69.812c-4.11-0.741-8.336-1.148-12.659-1.148 c-39.191,0-70.96,31.77-70.96,70.96c0,9.286,1.783,18.156,5.027,26.286l13.069,21.053c12.992,14.499,31.861,23.621,52.863,23.621 c4.322,0,8.549-0.407,12.659-1.148C306.537,294.695,281.383,265.723,281.383,230.855z"></path> </g> <g style="opacity:0.2;"> <path style="fill:#231F20;" d="M82.6,106.001H57.283c-7.143,0-12.935,5.792-12.935,12.935v20.101h25.318v-20.101 C69.665,111.792,75.456,106.001,82.6,106.001z"></path> </g> <polyline style="fill:#8AACAD;" points="418.704,418.629 418.704,379.786 235.348,379.786 235.348,418.629 418.704,418.629 "></polyline> <path style="fill:#698F92;" d="M167.921,392.722v-227.78c0-14.307-11.599-25.906-25.907-25.906H33.991 c-14.308,0-25.907,11.599-25.907,25.906v227.78c0,14.308,11.599,25.907,25.907,25.907h108.021 C156.322,418.629,167.921,407.03,167.921,392.722z"></path> <g> <path style="fill:#231F20;" d="M503.916,191.147c4.466,0,8.084-3.62,8.084-8.084v-18.12c0-18.742-15.248-33.99-33.991-33.99 h-49.011c-25.841-29.071-62.672-45.665-101.657-45.665c-38.984,0-75.816,16.595-101.657,45.665h-83.671h-2.272v-12.015 c0-11.59-9.428-21.019-21.019-21.019h-61.44c-11.59,0-21.019,9.429-21.019,21.019v12.015H33.99C15.248,130.951,0,146.199,0,164.942 v227.78c0,18.743,15.248,33.991,33.991,33.991h108.021h93.334h183.356h59.306c18.743,0,33.991-15.248,33.991-33.991V207.854 c0-4.465-3.618-8.084-8.084-8.084s-8.084,3.62-8.084,8.084v184.868c0,9.828-7.996,17.823-17.823,17.823h-51.222v-30.759 c0-4.465-3.618-8.084-8.084-8.084H235.348c-4.465,0-8.084,3.62-8.084,8.084v30.759h-56.321c3.207-5.186,5.063-11.291,5.063-17.823 v-227.78c0-6.532-1.856-12.636-5.063-17.822h58.439c2.388,0,4.652-1.055,6.188-2.882c22.855-27.189,56.304-42.783,91.772-42.783 c35.468,0,68.918,15.594,91.772,42.783c1.536,1.827,3.801,2.882,6.188,2.882h52.707c9.827,0,17.823,7.995,17.823,17.822v18.12 C495.832,187.527,499.451,191.147,503.916,191.147z M52.432,118.935c0-2.674,2.176-4.851,4.851-4.851h61.44 c2.675,0,4.851,2.176,4.851,4.851v12.015H52.432C52.432,130.951,52.432,118.935,52.432,118.935z M243.432,387.87H410.62v22.675 H243.432V387.87z M159.837,164.942v227.78c0,9.828-7.995,17.823-17.823,17.823H33.991c-9.827,0-17.823-7.995-17.823-17.823v-17.067 h25.537c4.465,0,8.084-3.62,8.084-8.084c0-4.465-3.62-8.084-8.084-8.084H16.168V339.58h25.537c4.465,0,8.084-3.62,8.084-8.084 c0-4.465-3.62-8.084-8.084-8.084H16.168v-19.905h25.537c4.465,0,8.084-3.62,8.084-8.084c0-4.465-3.62-8.084-8.084-8.084H16.168 v-19.905h25.537c4.465,0,8.084-3.62,8.084-8.084c0-4.465-3.62-8.084-8.084-8.084H16.168v-19.905h25.537 c4.465,0,8.084-3.62,8.084-8.084c0-4.465-3.62-8.084-8.084-8.084H16.168v-19.904h25.537c4.465,0,8.084-3.62,8.084-8.084 c0-4.465-3.62-8.084-8.084-8.084H16.168v-14.176c0-9.827,7.995-17.822,17.823-17.822h10.356h87.309h10.356 C151.841,147.119,159.837,155.114,159.837,164.942z"></path> <path style="fill:#231F20;" d="M327.026,151.811c-43.585,0-79.044,35.458-79.044,79.044c0,10.113,1.885,19.965,5.603,29.282 c1.656,4.148,6.357,6.166,10.505,4.512c4.147-1.655,6.167-6.357,4.511-10.505c-2.953-7.402-4.452-15.237-4.452-23.289 c0-34.671,28.206-62.876,62.876-62.876c34.668,0,62.874,28.205,62.874,62.876s-28.205,62.876-62.874,62.876 c-17.85,0-34.922-7.629-46.842-20.932c-2.979-3.324-8.09-3.606-11.416-0.626c-3.325,2.979-3.606,8.091-0.626,11.415 c14.983,16.72,36.446,26.31,58.884,26.31c43.585,0,79.042-35.458,79.042-79.044S370.61,151.811,327.026,151.811z"></path> <path style="fill:#231F20;" d="M360.162,231.755c0-18.272-14.865-33.138-33.137-33.138c-18.271,0-33.137,14.866-33.137,33.138 s14.865,33.138,33.137,33.138C345.297,264.893,360.162,250.028,360.162,231.755z M310.057,231.755 c0-9.357,7.611-16.969,16.968-16.969c9.357,0,16.968,7.613,16.968,16.969c0,9.356-7.611,16.969-16.968,16.969 C317.669,248.725,310.057,241.113,310.057,231.755z"></path> <path style="fill:#231F20;" d="M327.026,122.595c-59.376,0-107.682,48.305-107.682,107.681s48.306,107.682,107.682,107.682 s107.682-48.306,107.682-107.682S386.402,122.595,327.026,122.595z M327.026,321.789c-50.459,0-91.513-41.053-91.513-91.513 c0-50.459,41.053-91.512,91.513-91.512c50.462,0,91.513,41.053,91.513,91.512C418.539,280.736,377.487,321.789,327.026,321.789z"></path> <path style="fill:#231F20;" d="M446.078,119.834h33.623c4.466,0,8.084-3.62,8.084-8.084s-3.618-8.084-8.084-8.084h-33.623 c-4.466,0-8.084,3.62-8.084,8.084S441.613,119.834,446.078,119.834z"></path> </g> <g style="opacity:0.2;"> <path style="fill:#231F20;" d="M33.518,392.722v-227.78c0-14.307,11.599-25.906,25.907-25.906H33.991 c-14.308,0-25.907,11.599-25.907,25.906v227.78c0,14.308,11.599,25.907,25.907,25.907h25.434 C45.117,418.629,33.518,407.03,33.518,392.722z"></path> </g> </g></svg>