<svg height="50px" width="50px" version="1.1" id="Layer_1" xmlns="http://www.w3.org/2000/svg" xmlns:xlink="http://www.w3.org/1999/xlink" viewBox="-122.88 -122.88 757.76 757.76" xml:space="preserve" fill="#000000"><g id="SVGRepo_bgCarrier" stroke-width="0" transform="translate(0,0), scale(1)"><path transform="translate(-122.88, -122.88), scale(23.68)" d="M16,27.14211166179494C18.286232593719774,27.890181014984574,20.84386740592337,29.1840409041544,23.02024735755434,28.159425104985274C25.174421144983224,27.145263724247705,25.538720577091603,24.2534078332093,26.63037299091269,22.137448707889572C27.67058008898524,20.12120647407751,29.759283963926695,18.220421908031497,29.29346199941478,16C28.812331695044094,13.70660821122527,25.27095969826461,13.33628772324644,24.33343448099984,11.188689359120634C23.20259805963689,8.598271092081003,25.78090537567112,4.649426980713764,23.56979289415636,2.8887341045473374C21.513726694812455,1.2515034614317158,18.536930430299286,3.8658740503682103,16,4.55283575720693C14.090233502346557,5.069971125691055,12.356217559265763,5.814753843266617,10.477088613925797,6.434036873618824C8.075735364683146,7.225423393860022,4.829564877772487,6.642501721075662,3.3778224809836193,8.712582411636642C1.9568593581170706,10.738774061857537,3.8861267363630496,13.52800619388235,3.768502663624915,15.999999999999998C3.6431427645057304,18.63457034724565,0.9033728675048858,21.73588300699938,2.6647226816123055,23.69912594948943C4.604729371931934,25.861504150939204,8.397877733998769,23.569037927665754,11.210720536936266,24.29527536167257C13.040088831254355,24.767593165757305,14.204324539731239,26.55455561706365,16,27.14211166179494" fill="#9c2227" strokewidth="0"></path></g><g id="SVGRepo_tracerCarrier" stroke-linecap="round" stroke-linejoin="round" stroke="#CCCCCC" stroke-width="1.024"></g><g id="SVGRepo_iconCarrier"> <path style="fill:#CCB88B;" d="M433.341,8.084H34.581c-14.633,0-26.497,11.864-26.497,26.497v50.125v244.841v68.45 c0,14.635,11.863,26.498,26.497,26.498h442.836c14.633,0,26.499-11.863,26.499-26.498v-68.45V84.706V34.581 c0-14.632-11.865-26.497-26.499-26.497H459.21"></path> <path style="fill:#231f20;" d="M457.531,40.513h-29.591H84.061H54.467c-7.143,0-12.935,5.79-12.935,12.935v6.467v236.046v6.467 c0,7.144,5.792,12.935,12.935,12.935h29.594h12.769h25.512h305.598h29.591c7.143,0,12.935-5.79,12.935-12.935v-6.467V59.915v-6.467 C470.465,46.303,464.674,40.513,457.531,40.513z"></path> <path style="fill:#F5F5F5;" d="M457.531,40.513h-29.591H84.061H54.467c-7.143,0-12.935,5.79-12.935,12.935v6.467v21.111h428.932 V59.915v-6.467C470.465,46.303,464.674,40.513,457.531,40.513z"></path> <path style="fill:#F74848;" d="M87.954,40.513h-3.892H54.467c-7.143,0-12.935,5.79-12.935,12.935v6.467v21.111h46.421V40.513H87.954 z"></path> <g style="opacity:0.1;"> <path style="fill:#231f20;" d="M33.493,397.995v-68.45V84.706V34.581c0-14.632,11.864-26.497,26.498-26.497h-25.41 c-14.633,0-26.497,11.864-26.497,26.497v50.125v244.841v68.45c0,14.635,11.863,26.498,26.497,26.498h25.41 C45.358,424.493,33.493,412.631,33.493,397.995z"></path> </g> <circle style="fill:#F74848;" cx="87.956" cy="369.567" r="26.085"></circle> <path style="fill:#CCB88B;" d="M55.512,424.493v66.488c0,7.143,5.792,12.935,12.935,12.935h375.107 c7.143,0,12.935-5.792,12.935-12.935v-66.488L55.512,424.493L55.512,424.493z"></path> <g style="opacity:0.2;"> <path style="fill:#231f20;" d="M81.021,490.981v-66.488H55.512v66.488c0,7.143,5.792,12.935,12.935,12.935h25.509 C86.813,503.916,81.021,498.124,81.021,490.981z"></path> </g> <path style="fill:#AA9468;" d="M401.516,464.743H110.484c-7.145,0-12.935,5.792-12.935,12.935v26.238h316.901v-26.238 C414.451,470.534,408.659,464.743,401.516,464.743z"></path> <g style="opacity:0.2;"> <path style="fill:#231f20;" d="M66.324,302.428v-6.467V59.915v-6.467c0-7.144,5.792-12.935,12.935-12.935H54.467 c-7.143,0-12.935,5.79-12.935,12.935v6.467v236.046v6.467c0,7.144,5.792,12.935,12.935,12.935h24.792 C72.115,315.363,66.324,309.572,66.324,302.428z"></path> </g> <g style="opacity:0.2;"> <path style="fill:#231f20;" d="M86.657,369.566c0-9.921,5.538-18.547,13.692-22.959c-3.689-1.995-7.91-3.128-12.396-3.128 c-14.41,0-26.088,11.68-26.088,26.087c0,14.41,11.678,26.089,26.088,26.089c4.486,0,8.707-1.134,12.396-3.128 C92.194,388.116,86.657,379.489,86.657,369.566z"></path> </g> <g style="opacity:0.2;"> <path style="fill:#231f20;" d="M135.276,464.743h-24.792c-7.145,0-12.935,5.792-12.935,12.935v26.238h24.792v-26.238 C122.341,470.534,128.13,464.743,135.276,464.743z"></path> </g> <g> <path style="fill:#231f20;" d="M87.954,335.395c-18.844,0-34.172,15.33-34.172,34.171c0,18.843,15.33,34.174,34.172,34.174 s34.172-15.331,34.172-34.174C122.127,350.724,106.797,335.395,87.954,335.395z M87.954,387.572 c-9.927,0-18.004-8.077-18.004-18.005c0-9.927,8.077-18.003,18.004-18.003s18.004,8.076,18.004,18.003 C105.958,379.494,97.881,387.572,87.954,387.572z"></path> <path style="fill:#231f20;" d="M470.465,336.472h-80.24c-4.466,0-8.084,3.618-8.084,8.084c0,4.466,3.618,8.084,8.084,8.084h80.24 c4.466,0,8.084-3.618,8.084-8.084C478.55,340.091,474.93,336.472,470.465,336.472z"></path> <path style="fill:#231f20;" d="M470.465,362.65h-80.24c-4.466,0-8.084,3.618-8.084,8.084c0,4.466,3.618,8.084,8.084,8.084h80.24 c4.466,0,8.084-3.618,8.084-8.084C478.55,366.269,474.93,362.65,470.465,362.65z"></path> <path style="fill:#231f20;" d="M478.55,81.025V53.447c0-11.59-9.429-21.019-21.019-21.019H87.954H54.467 c-11.59,0-21.019,9.429-21.019,21.019v27.578v221.403c0,11.59,9.429,21.019,21.019,21.019h42.362c4.466,0,8.084-3.618,8.084-8.084 s-3.618-8.084-8.084-8.084H54.467c-2.675,0-4.851-2.176-4.851-4.851V89.11h38.336H462.38v213.319c0,2.674-2.175,4.851-4.851,4.851 H122.341c-4.466,0-8.084,3.618-8.084,8.084s3.618,8.084,8.084,8.084h335.19c11.59,0,21.019-9.429,21.019-21.019V81.025z M49.617,72.941V53.447c0-2.674,2.175-4.851,4.851-4.851h25.402v24.344H49.617z M96.038,72.941V48.597h361.492 c2.675,0,4.851,2.176,4.851,4.851v19.494H96.038z"></path> <path style="fill:#231f20;" d="M477.417,0H459.21c-4.466,0-8.084,3.618-8.084,8.084s3.618,8.084,8.084,8.084h18.207 c10.154,0,18.415,8.26,18.415,18.413v363.414c0,10.154-8.261,18.414-18.415,18.414h-20.928H55.512H34.581 c-10.153,0-18.413-8.26-18.413-18.414V34.581c0-10.153,8.26-18.413,18.413-18.413h398.76c4.466,0,8.084-3.618,8.084-8.084 S437.806,0,433.341,0H34.581C15.513,0,0,15.513,0,34.581v363.414c0,19.068,15.513,34.582,34.581,34.582h12.846v58.404 c0,11.59,9.429,21.019,21.019,21.019h29.103h316.901h29.103c11.59,0,21.019-9.429,21.019-21.019v-58.404h12.844 c19.069,0,34.583-15.514,34.583-34.582V34.581C512,15.513,496.486,0,477.417,0z M105.634,495.832v-18.154 c0-2.674,2.176-4.851,4.851-4.851h291.032c2.675,0,4.851,2.176,4.851,4.851v18.154H105.634z M448.404,490.981 c0,2.674-2.175,4.851-4.851,4.851h-21.019v-18.154c0-11.59-9.429-21.019-21.019-21.019H110.484 c-11.59,0-21.019,9.429-21.019,21.019v18.154H68.446c-2.674,0-4.851-2.176-4.851-4.851v-58.404h384.808V490.981z"></path> <path style="fill:#231f20;" d="M470.465,388.829h-27.962c-4.466,0-8.084,3.618-8.084,8.084s3.618,8.084,8.084,8.084h27.962 c4.466,0,8.084-3.618,8.084-8.084S474.93,388.829,470.465,388.829z"></path> <path style="fill:#231f20;" d="M81.947,168.94h339.537c4.466,0,8.084-3.618,8.084-8.084c0-4.466-3.618-8.084-8.084-8.084H81.947 c-4.466,0-8.084,3.618-8.084,8.084C73.863,165.321,77.482,168.94,81.947,168.94z"></path> <path style="fill:#231f20;" d="M81.947,131.752h339.537c4.466,0,8.084-3.618,8.084-8.084s-3.618-8.084-8.084-8.084H81.947 c-4.466,0-8.084,3.618-8.084,8.084S77.482,131.752,81.947,131.752z"></path> <path style="fill:#231f20;" d="M81.947,280.501h339.537c4.466,0,8.084-3.618,8.084-8.084c0-4.466-3.618-8.084-8.084-8.084H81.947 c-4.466,0-8.084,3.618-8.084,8.084C73.863,276.882,77.482,280.501,81.947,280.501z"></path> <path style="fill:#231f20;" d="M81.947,206.126h339.537c4.466,0,8.084-3.618,8.084-8.084c0-4.466-3.618-8.084-8.084-8.084H81.947 c-4.466,0-8.084,3.618-8.084,8.084C73.863,202.507,77.482,206.126,81.947,206.126z"></path> <path style="fill:#231f20;" d="M81.947,243.313h339.537c4.466,0,8.084-3.618,8.084-8.084c0-4.466-3.618-8.084-8.084-8.084H81.947 c-4.466,0-8.084,3.618-8.084,8.084C73.863,239.695,77.482,243.313,81.947,243.313z"></path> </g> </g></svg>