<svg viewBox="-102.4 -102.4 1228.80 1228.80" class="icon" height="50px" width="50px"  version="1.1" xmlns="http://www.w3.org/2000/svg" fill="#000000"><g id="SVGRepo_bgCarrier" stroke-width="0"><path transform="translate(-102.4, -102.4), scale(38.4)" d="M16,30.649998113512993C18.015905273379236,30.54715923675845,19.507685848549315,28.777562091378556,21.197098632686718,27.672874646621693C22.690472750961685,26.696374614022776,23.947715237410524,25.486688292784052,25.425509364275875,24.486766751161163C27.310757760834544,23.211148957884614,30.314068282257985,23.03856526939863,31.165873519146537,20.92769101694777C31.995001382454575,18.87301398180819,30.561417595470147,16.488206405829718,29.419344607225263,14.58957004729101C28.412178248023533,12.915208873916129,26.207320495327863,12.350306777075167,25.056521817477034,10.771214690757919C24.054677324205755,9.396513153909046,24.434640718769156,7.255990289847233,23.212545442159147,6.072782852835388C21.993652873911337,4.892676211993255,20.163006810378107,4.449108924512308,18.467405781636728,4.391768467410651C16.836853384325565,4.33662777204352,15.366932782536901,5.229702115723704,13.822407937518806,5.75523481668967C12.418313939170485,6.232985183569299,11.109499246843175,6.829060344117466,9.726872591800287,7.365780850541723C7.972432040475682,8.046835434412007,5.744063533145283,7.9441508152700555,4.51410553632428,9.368615739513181C3.3200360251870533,10.751516732977473,3.534306874764476,12.854038870363372,3.413857549218294,14.677143122765711C3.296162834376454,16.45855397036046,3.1306268109652766,18.31018030703146,3.814394601797156,19.959343204398127C4.487166148869071,21.58198452899918,6.123090746196734,22.532202865887115,7.2346310166572785,23.892373682364624C8.39793413789634,25.315885720818237,9.10539279065488,27.092993432991882,10.561333548870419,28.215444850236153C12.151742997167878,29.441564339759974,13.994431859939022,30.75230965438854,16,30.649998113512993" fill="#9c2227" strokewidth="0"></path></g><g id="SVGRepo_tracerCarrier" stroke-linecap="round" stroke-linejoin="round"></g><g id="SVGRepo_iconCarrier"><path d="M641.115022 835.7888v-353.166222c0-42.916978-34.952533-77.7216-78.062933-77.7216H307.256889c-43.121778 0-78.062933 34.804622-78.062933 77.7216v408.644266h322.218666" fill="#2b6c91"></path><path d="M397.801244 404.912356h-90.544355c-43.121778 0-78.051556 34.804622-78.051556 77.7216v408.644266h90.544356V482.622578c-0.011378-42.916978 34.929778-77.710222 78.051555-77.710222z" fill="#2f81a7"></path><path d="M899.106133 894.464v28.9792h-347.704889V894.452622c0-32.403911 26.385067-58.663822 58.936889-58.663822h229.831111c32.551822 0 58.936889 26.271289 58.936889 58.6752z" fill="#CCCCCC"></path><path d="M619.3152 894.464c0-32.415289 26.373689-58.6752 58.936889-58.6752h-67.913956c-32.540444 0-58.936889 26.271289-58.936889 58.6752V923.4432h67.913956V894.464z" fill="#B3B3B3"></path><path d="M756.929422 291.510044v544.278756h-65.217422V291.510044z" fill="#F2F2F2"></path><path d="M756.929422 252.370489v39.139555h-65.217422v-39.139555c0-60.472889-49.402311-109.659022-110.125511-109.659022s-110.125511 49.186133-110.125511 109.659022v97.757867h-65.217422v-97.757867c0-96.244622 78.665956-174.569244 175.342933-174.569245s175.342933 78.313244 175.342933 174.569245z" fill="#9fa9ad"></path><path d="M152.200533 758.863644h77.0048V923.420444h-77.0048zM641.115022 758.863644h50.596978v76.936534h-50.596978z" fill="#4D4D4D"></path><path d="M541.502578 761.673956h99.601066V578.582756h-99.601066a41.949867 41.949867 0 0 0-42.052267 41.870222v99.362133a41.961244 41.961244 0 0 0 42.052267 41.858845z" fill="#E6E6E6"></path><path d="M505.105067 877.181156H243.347911V667.773156c0-7.7824-6.337422-14.085689-14.153955-14.085689s-14.153956 6.314667-14.153956 14.085689v77.0048h-62.839467a14.108444 14.108444 0 0 0-14.153955 14.085688V923.420444a14.108444 14.108444 0 0 0 14.153955 14.085689h76.993423a14.108444 14.108444 0 0 0 14.142577-14.085689v-18.067911h261.768534c7.816533 0 14.142578-6.314667 14.142577-14.085689s-6.326044-14.085689-14.142577-14.085688zM215.04 909.334756h-48.696889V772.960711h48.696889v136.374045z" fill=""></path><path d="M848.975644 821.714489H771.072v-65.911467a14.108444 14.108444 0 0 0-14.142578-14.085689 14.108444 14.108444 0 0 0-14.153955 14.085689v65.911467h-36.909511V305.595733h36.909511V708.835556a14.108444 14.108444 0 0 0 14.153955 14.085688A14.108444 14.108444 0 0 0 771.072 708.835556V252.359111c0.011378-104.015644-85.003378-188.643556-189.485511-188.643555s-189.485511 84.627911-189.485511 188.654933v83.672178h-6.747022c-21.424356 0-38.866489 17.351111-38.866489 38.684444v16.088178h-39.230578c-50.847289 0-92.205511 41.187556-92.205511 91.807289v138.194489a14.108444 14.108444 0 0 0 14.153955 14.085689c7.816533 0 14.153956-6.314667 14.153956-14.085689v-92.956445h298.541511a14.108444 14.108444 0 0 0 14.153956-14.085689 14.108444 14.108444 0 0 0-14.153956-14.085689h-298.552889v-17.066666c0-35.077689 28.672-63.624533 63.908978-63.624534h255.783822c35.248356 0 63.908978 28.535467 63.908978 63.624534v17.066666h-37.910756a14.108444 14.108444 0 0 0-14.142577 14.085689 14.108444 14.108444 0 0 0 14.142577 14.085689h37.910756v36.625067H536.803556c-28.398933 0-51.495822 22.994489-51.495823 51.268267v108.737422c0 28.2624 23.108267 51.268267 51.495823 51.268266h90.157511v45.943467H601.543111c-35.441778 0-64.261689 28.694756-64.261689 63.988622v37.751467a14.108444 14.108444 0 0 0 14.1312 14.085689h347.716267a14.108444 14.108444 0 0 0 14.142578-14.085689v-37.751467c-0.011378-35.282489-28.854044-63.977244-64.295823-63.977244z m-428.578133-569.344c0-88.496356 72.305778-160.483556 161.188978-160.483556 88.8832 0 161.188978 71.9872 161.188978 160.483556v25.053867h-36.909511v-25.053867c0-68.232533-55.751111-123.744711-124.279467-123.744711s-124.268089 55.512178-124.268089 123.744711v83.672178h-36.920889v-83.672178zM374.784 374.738489c0-5.802667 4.744533-10.524444 10.569956-10.524445h99.601066c5.825422 0 10.558578 4.721778 10.558578 10.524445v16.088178H374.784v-16.088178z m188.256711 16.088178h-39.241955v-16.088178c0-21.105778-17.066667-38.2976-38.1952-38.650311v-83.706311c0-52.701867 43.064889-95.573333 95.982933-95.573334s95.994311 42.882844 95.994311 95.573334V744.789333h-22.3232V482.622578c0-50.608356-41.3696-91.795911-92.216889-91.795911z m63.920356 356.772977H536.803556a23.187911 23.187911 0 0 1-23.199289-23.108266V615.765333c0-12.743111 10.410667-23.108267 23.199289-23.108266h90.157511v154.942577z m28.296533 25.349689h22.3232v48.765156h-22.3232v-48.765156z m229.694578 136.408178H565.5552v-23.665778a35.931022 35.931022 0 0 1 35.976533-35.805866h247.455289a35.931022 35.931022 0 0 1 35.965156 35.805866v23.665778z" fill=""></path></g></svg>