<svg version="1.1" id="Layer_1" xmlns="http://www.w3.org/2000/svg" xmlns:xlink="http://www.w3.org/1999/xlink" viewBox="-97.28 -97.28 706.56 706.56" xml:space="preserve" width="50px" height="50px" fill="#000000"><g id="SVGRepo_bgCarrier" stroke-width="0"><path transform="translate(-97.28, -97.28), scale(22.08)" d="M16,24.591295013204217C19.188005945098134,24.611560607119902,21.176845147333495,29.529549681638333,24.30736133233359,28.926506552392798C27.134928829552297,28.381821570457245,28.59129287972431,24.850048310016714,29.23125008943738,22.0425094499811C29.826978894190983,19.4290038217873,28.8968477478699,16.692172524024492,27.635182395247547,14.327113324890963C26.608802322044223,12.403108969146825,23.886168059360372,11.985094896937099,22.84413600028992,10.069522396753232C21.320480798697496,7.268579778407906,23.365583595745107,2.188279537241411,20.397775187638945,1.0225531639542655C17.563788319720896,-0.09060940558965602,15.659660942032701,4.549152216300509,13.139368497901373,6.257583798138109C11.517926129741879,7.3567115427550664,9.293490896456802,7.622717068739076,8.232247386170595,9.269204045342548C7.207373056910733,10.859265345530375,8.466050546705487,13.09784741659071,7.635088050502619,14.7973072304831C6.187202175810302,17.758480412649547,1.7323876441687096,19.2063006838369,1.761801745258099,22.502367268657725C1.7882537124584632,25.46650494286139,4.827379030574189,28.391031022038533,7.760238347362989,28.821319397581515C10.87805647173466,29.278743621203407,12.848869166690822,24.571263827898168,16,24.591295013204217" fill="#9c2227" strokewidth="0"></path></g><g id="SVGRepo_tracerCarrier" stroke-linecap="round" stroke-linejoin="round"></g><g id="SVGRepo_iconCarrier"> <g> <rect x="55.38" y="473.924" style="fill:#54686C;" width="77.322" height="27.625"></rect> <rect x="379.298" y="473.924" style="fill:#54686C;" width="77.322" height="27.625"></rect> </g> <rect x="55.38" y="141.061" style="fill:#FFFFFB;" width="66.873" height="29.257"></rect> <rect x="122.253" y="141.061" style="fill:#FAF9F9;" width="66.873" height="29.257"></rect> <rect x="189.127" y="141.061" style="fill:#FFFFFB;" width="66.873" height="29.257"></rect> <rect x="10.449" y="170.318" style="fill:#87A3AA;" width="491.102" height="303.606"></rect> <g> <circle style="fill:#b0c8e8;" cx="137.927" cy="325.266" r="82.547"></circle> <circle style="fill:#b0c8e8;" cx="437.812" cy="368.891" r="18.808"></circle> <circle style="fill:#b0c8e8;" cx="370.939" cy="368.891" r="18.808"></circle> <circle style="fill:#b0c8e8;" cx="304.065" cy="368.891" r="18.808"></circle> </g> <rect x="285.257" y="242.719" style="fill:#FFFFFB;" width="171.363" height="56.423"></rect> <path d="M137.927,232.268c-51.278,0-92.996,41.718-92.996,92.996s41.718,92.996,92.996,92.996s92.996-41.718,92.996-92.996 S189.205,232.268,137.927,232.268z M104.482,261.423c7.061-3.715,14.804-6.296,22.995-7.49v142.663 c-8.191-1.194-15.935-3.775-22.995-7.49c0.001-0.05,0.007-0.099,0.007-0.149V261.573 C104.49,261.522,104.482,261.473,104.482,261.423z M148.376,253.933c8.191,1.194,15.935,3.775,22.995,7.49 c-0.001,0.05-0.007,0.099-0.007,0.15v127.384c0,0.05,0.007,0.099,0.007,0.149c-7.061,3.715-14.804,6.296-22.995,7.49V253.933z M65.829,325.264c0-18.093,6.715-34.638,17.763-47.311v94.622C72.543,359.903,65.829,343.358,65.829,325.264z M192.261,372.575 v-94.622c11.049,12.673,17.763,29.217,17.763,47.311C210.024,343.358,203.31,359.903,192.261,372.575z"></path> <path d="M437.81,339.629c-16.132,0-29.257,13.125-29.257,29.257s13.125,29.257,29.257,29.257s29.257-13.125,29.257-29.257 S453.943,339.629,437.81,339.629z M437.81,377.246c-4.609,0-8.359-3.75-8.359-8.359c0-4.609,3.75-8.359,8.359-8.359 c4.609,0,8.359,3.75,8.359,8.359C446.169,373.496,442.419,377.246,437.81,377.246z"></path> <path d="M370.939,339.629c-16.132,0-29.257,13.125-29.257,29.257s13.125,29.257,29.257,29.257s29.257-13.125,29.257-29.257 S387.071,339.629,370.939,339.629z M370.939,377.246c-4.609,0-8.359-3.75-8.359-8.359c0-4.609,3.75-8.359,8.359-8.359 c4.609,0,8.359,3.75,8.359,8.359C379.298,373.496,375.548,377.246,370.939,377.246z"></path> <path d="M304.067,398.144c16.132,0,29.257-13.125,29.257-29.257s-13.125-29.257-29.257-29.257 c-16.132,0-29.257,13.125-29.257,29.257S287.935,398.144,304.067,398.144z M304.067,360.527c4.609,0,8.359,3.75,8.359,8.359 c0,4.609-3.75,8.359-8.359,8.359c-4.609,0-8.359-3.75-8.359-8.359C295.708,364.278,299.458,360.527,304.067,360.527z"></path> <path d="M501.551,159.869h-34.482v-48.354c0-5.771-4.678-10.449-10.449-10.449c-5.771,0-10.449,4.678-10.449,10.449v48.354H266.449 v-18.808c0-5.771-4.678-10.449-10.449-10.449h-66.873h-66.873H55.38c-5.771,0-10.449,4.678-10.449,10.449v18.808H10.449 C4.678,159.869,0,164.547,0,170.318v303.609c0,5.771,4.678,10.449,10.449,10.449h34.482v17.175c0,5.771,4.678,10.449,10.449,10.449 h77.322c5.771,0,10.449-4.678,10.449-10.449v-17.176h225.698v17.176c0,5.771,4.678,10.449,10.449,10.449h77.322 c5.771,0,10.449-4.678,10.449-10.449v-17.176h34.482c5.771,0,10.449-4.678,10.449-10.449V170.318 C512,164.547,507.322,159.869,501.551,159.869z M245.551,159.869h-45.976v-8.359h45.976V159.869z M178.678,159.869h-45.975v-8.359 h45.975V159.869z M65.829,151.51h45.976v8.359H65.829V151.51z M122.253,491.102H65.829v-6.727h56.424V491.102z M446.171,491.102 h-56.424v-6.727h56.424V491.102z M491.102,463.478H456.62h-77.322H132.702H55.38H20.898V180.767h470.204V463.478z"></path> <path d="M456.62,56.424c15.556,0,28.212-12.656,28.212-28.212S472.177,0,456.62,0c-15.556,0-28.212,12.656-28.212,28.212 S441.064,56.424,456.62,56.424z M456.62,20.898c4.033,0,7.314,3.281,7.314,7.314s-3.281,7.314-7.314,7.314s-7.314-3.281-7.314-7.314 S452.587,20.898,456.62,20.898z"></path> <path d="M351.996,309.591h0.137c5.771,0,10.449-4.678,10.449-10.449c0-5.771-4.678-10.449-10.449-10.449h-0.137 c-5.771,0-10.449,4.678-10.449,10.449C341.547,304.913,346.225,309.591,351.996,309.591z"></path> <path d="M285.259,309.59h33.972c5.771,0,10.449-4.678,10.449-10.449c0-5.771-4.678-10.449-10.449-10.449h-23.523v-35.525h150.463 v35.525h-60.234c-5.771,0-10.449,4.678-10.449,10.449c0,5.771,4.678,10.449,10.449,10.449h70.683 c5.771,0,10.449-4.678,10.449-10.449v-56.423c0-5.771-4.678-10.449-10.449-10.449H285.259c-5.771,0-10.449,4.678-10.449,10.449 v56.423C274.81,304.912,279.488,309.59,285.259,309.59z"></path> <path d="M446.171,81.231v0.137c0,5.771,4.678,10.449,10.449,10.449c5.771,0,10.449-4.678,10.449-10.449v-0.137 c0-5.771-4.678-10.449-10.449-10.449C450.849,70.782,446.171,75.46,446.171,81.231z"></path> </g></svg>