<svg version="1.1" id="Layer_1" xmlns="http://www.w3.org/2000/svg" xmlns:xlink="http://www.w3.org/1999/xlink" viewBox="-51.2 -51.2 614.40 614.40" xml:space="preserve" width="50px" height="50px" fill="#000000"><g id="SVGRepo_bgCarrier" stroke-width="0"><path transform="translate(-51.2, -51.2), scale(19.2)" d="M16,30.415747686782304C18.335435654704263,31.15199300658511,21.141714884356194,31.04747370226087,23.20712024231448,29.732020329650247C25.26891862930101,28.418864231088726,25.831511417887917,25.714179573549266,26.862195894841634,23.4976324757559C27.755638629015653,21.576231752489814,28.39028991992076,19.62709050493579,28.86602378353279,17.562218123981324C29.386762463972783,15.302007108580254,30.456301797563622,12.991400953363446,29.79496483520579,10.76825992552332C29.127562724810854,8.52473038137657,27.182088727549356,6.890218516368446,25.283909351536174,5.520632648707295C23.4829272293393,4.221177131678171,21.355198226229906,3.54415575747677,19.17768692882474,3.1076173343304667C17.062396001045023,2.6835525925268224,14.6332816110796,1.8803479105533243,12.800212797680716,3.017953000086848C10.883199110256419,4.20765439677127,11.238110141802588,7.251304680649952,9.757571166773756,8.953754455082532C8.538858389688162,10.35513417384817,6.395400723028838,10.532989227782664,5.104014062379306,11.867697601134607C3.4345151548039796,13.593202625417529,1.1110540845011352,15.397611389712523,1.201489076595875,17.796864545056003C1.2899636652096393,20.144107918250697,3.728075043996494,21.72119579684748,5.532121729387592,23.225454671764346C7.06826573446419,24.50632964661893,9.190589999837126,24.70061434010718,10.839220402752353,25.833043984776143C12.76350776335796,27.154819956005543,13.773499398518153,29.71384410657567,16,30.415747686782304" fill="#9c2227" strokewidth="0"></path></g><g id="SVGRepo_tracerCarrier" stroke-linecap="round" stroke-linejoin="round"></g><g id="SVGRepo_iconCarrier"> <path style="fill:#474747;" d="M391.307,115.261v371.613c0,9.161-7.421,16.593-16.593,16.593h-37.679L240.9,486.378 c0,0,91.665-387.711,82.504-387.711h51.31C383.886,98.667,391.307,106.089,391.307,115.261z"></path> <path style="fill:#d6d6d6;" d="M172.259,398.292l83.869-33.032l83.869,33.032c0,0-19.555,78.749-19.555,88.581 c0,9.161,7.432,16.593,16.593,16.593H169.308c-9.172,0-16.593-7.432-16.593-16.593C152.715,477.041,172.259,398.292,172.259,398.292 z"></path> <path style="fill:#b3b3b3;" d="M339.997,115.261v283.031H172.259V115.261c0-9.172,7.432-16.593,16.593-16.593h134.551 C332.565,98.667,339.997,106.089,339.997,115.261z"></path> <rect x="208.147" y="196.256" style="fill:#5FD8AB;" width="95.97" height="53.182"></rect> <g> <path style="fill:#021729;" d="M227.031,277.342h-5.008c-4.561,0-8.258,3.697-8.258,8.258c0,4.561,3.697,8.258,8.258,8.258h5.008 c4.561,0,8.258-3.697,8.258-8.258C235.289,281.04,231.592,277.342,227.031,277.342z"></path> <path style="fill:#021729;" d="M289.96,277.342h-5.007c-4.561,0-8.258,3.697-8.258,8.258c0,4.561,3.697,8.258,8.258,8.258h5.007 c4.561,0,8.258-3.697,8.258-8.258C298.218,281.04,294.52,277.342,289.96,277.342z"></path> <path style="fill:#021729;" d="M227.031,313.227h-5.008c-4.561,0-8.258,3.697-8.258,8.258c0,4.561,3.697,8.258,8.258,8.258h5.008 c4.561,0,8.258-3.697,8.258-8.258C235.289,316.925,231.592,313.227,227.031,313.227z"></path> <path style="fill:#021729;" d="M289.96,313.227h-5.007c-4.561,0-8.258,3.697-8.258,8.258c0,4.561,3.697,8.258,8.258,8.258h5.007 c4.561,0,8.258-3.697,8.258-8.258C298.218,316.925,294.52,313.227,289.96,313.227z"></path> <path style="fill:#021729;" d="M227.031,365.629c4.561,0,8.258-3.697,8.258-8.258c0-4.561-3.697-8.258-8.258-8.258h-5.008 c-4.561,0-8.258,3.697-8.258,8.258c0,4.561,3.697,8.258,8.258,8.258H227.031z"></path> <path style="fill:#021729;" d="M258.495,277.342h-5.008c-4.561,0-8.258,3.697-8.258,8.258c0,4.561,3.697,8.258,8.258,8.258h5.008 c4.561,0,8.258-3.697,8.258-8.258C266.754,281.04,263.056,277.342,258.495,277.342z"></path> <path style="fill:#021729;" d="M258.495,313.227h-5.008c-4.561,0-8.258,3.697-8.258,8.258c0,4.561,3.697,8.258,8.258,8.258h5.008 c4.561,0,8.258-3.697,8.258-8.258C266.754,316.925,263.056,313.227,258.495,313.227z"></path> <path style="fill:#021729;" d="M258.495,349.112h-5.008c-4.561,0-8.258,3.697-8.258,8.258c0,4.561,3.697,8.258,8.258,8.258h5.008 c4.561,0,8.258-3.697,8.258-8.258C266.754,352.81,263.056,349.112,258.495,349.112z"></path> <path style="fill:#021729;" d="M289.96,349.112h-5.007c-4.561,0-8.258,3.697-8.258,8.258c0,4.561,3.697,8.258,8.258,8.258h5.007 c4.561,0,8.258-3.697,8.258-8.258C298.218,352.81,294.52,349.112,289.96,349.112z"></path> <path style="fill:#021729;" d="M255.992,165.798c4.561,0,8.258-3.697,8.258-8.258v-19.605c0-4.561-3.697-8.258-8.258-8.258 c-4.561,0-8.258,3.697-8.258,8.258v19.605C247.734,162.1,251.431,165.798,255.992,165.798z"></path> <path style="fill:#021729;" d="M312.232,249.715v-53.181c0-4.561-3.697-8.258-8.258-8.258h-95.965 c-4.561,0-8.258,3.697-8.258,8.258v53.181c0,4.561,3.697,8.258,8.258,8.258h95.965 C308.535,257.973,312.232,254.276,312.232,249.715z M295.716,241.457h-79.449v-36.665h79.449V241.457z"></path> <path style="fill:#021729;" d="M258.432,442.895h-28.628c-4.561,0-8.258,3.697-8.258,8.258s3.697,8.258,8.258,8.258h28.628 c4.561,0,8.258-3.697,8.258-8.258S262.993,442.895,258.432,442.895z"></path> <path style="fill:#021729;" d="M374.581,90.681h-87.145V8.258c0-4.561-3.697-8.258-8.258-8.258c-4.561,0-8.258,3.697-8.258,8.258 v82.423h-82.203c-13.703,0-24.851,11.148-24.851,24.851v24.633c-7.579,10.291-36.98,53.32-47.947,115.117 c-8.523,48.032-0.607,77.853,21.722,81.815c1.292,0.229,2.724,0.378,4.27,0.378c6.174,0,14.133-2.389,21.955-11.485v71.564 c-3.797,15.32-19.55,79.506-19.55,89.593c0,13.703,11.148,24.851,24.851,24.851h205.413c13.703,0,24.851-11.148,24.851-24.851 V115.533C399.432,101.83,388.284,90.681,374.581,90.681z M140.525,320.837c-9.089-1.613-15.579-21.912-8.346-62.668 c6.642-37.427,20.759-67.913,31.686-87.233v119.039C157.307,310.434,148.412,322.244,140.525,320.837z M169.167,495.484 c-4.596,0-8.335-3.739-8.335-8.331c0.052-5.432,8.817-43.979,17.758-80.331h15.804c4.561,0,8.258-3.697,8.258-8.258 c0-4.561-3.697-8.258-8.258-8.258h-14.013V115.533c0-4.596,3.739-8.335,8.335-8.335h134.55c4.596,0,8.335,3.739,8.335,8.335 v274.773H227.426c-4.561,0-8.258,3.697-8.258,8.258c0,4.561,3.697,8.258,8.258,8.258h101.895 c-5.698,23.3-17.269,71.681-17.269,80.327c0,2.922,0.508,5.729,1.438,8.335H169.167z M382.916,487.149 c0,4.596-3.739,8.335-8.335,8.335h-37.678c-4.596,0-8.334-3.739-8.334-8.331c0.054-5.744,9.859-48.542,19.306-86.598 c0.01-0.039,0.012-0.078,0.022-0.117c0.053-0.227,0.094-0.457,0.128-0.69c0.012-0.08,0.027-0.161,0.037-0.242 c0.035-0.309,0.057-0.622,0.057-0.94V115.534c0-2.922-0.507-5.729-1.438-8.335h27.9c4.596,0,8.335,3.739,8.335,8.335v371.615 H382.916z"></path> </g> </g></svg>